<svg width="40" height="40" viewBox="0 0 40 40" fill="none" xmlns="http://www.w3.org/2000/svg">
  <g fill="#A0D2F5">
    <circle cx="14" cy="20.5" r="7"/>
    <circle cx="22" cy="17" r="9"/>
    <circle cx="30" cy="20.5" r="6"/>
    <rect x="7" y="20.5" width="28" height="11" rx="5.5"/>
  </g>

  <g fill="#5FA0D7">
    <path d="M14 27.2C12.9 29.3 12.2 30.5 12.2 31.8C12.2 33.3 13.4 34.5 14.9 34.5C16.4 34.5 17.6 33.3 17.6 31.8C17.6 30.5 16.8 29.2 15.7 27.2C15.3 26.4 14.4 26.4 14 27.2Z"/>
    <path d="M22 27.2C20.9 29.3 20.2 30.5 20.2 31.8C20.2 33.3 21.4 34.5 22.9 34.5C24.4 34.5 25.6 33.3 25.6 31.8C25.6 30.5 24.8 29.2 23.7 27.2C23.3 26.4 22.4 26.4 22 27.2Z"/>
    <path d="M30 27.2C28.9 29.3 28.2 30.5 28.2 31.8C28.2 33.3 29.4 34.5 30.9 34.5C32.4 34.5 33.6 33.3 33.6 31.8C33.6 30.5 32.8 29.2 31.7 27.2C31.3 26.4 30.4 26.4 30 27.2Z"/>
  </g>
</svg>
